<svg width="193" height="303" viewBox="0 0 193 303" fill="none" xmlns="http://www.w3.org/2000/svg">
<path d="M180.466 4.47796C187.358 10.1447 190.153 16.917 191.466 25.478C191.764 29.5653 191.799 33.6309 191.779 37.728C191.775 38.8675 191.77 40.007 191.766 41.1811C191.627 51.8029 190.444 62.0523 188.466 72.478C188.327 73.2238 188.188 73.9697 188.044 74.7382C181.557 108.519 169.176 142.046 155.564 173.552C153.681 177.913 152.008 182.321 150.404 186.79C145.996 198.765 140.602 210.559 133.79 221.365C132.447 223.508 131.232 225.691 130.029 227.915C124.626 237.691 118.264 246.631 111.466 255.478C110.787 256.388 110.108 257.298 109.408 258.236C108.788 259.058 108.168 259.881 107.529 260.728C106.983 261.455 106.438 262.182 105.876 262.931C105.411 263.442 104.946 263.952 104.466 264.478C103.806 264.478 103.146 264.478 102.466 264.478C102.239 265.035 102.012 265.592 101.779 266.165C100.091 269.14 97.9994 271.198 95.4662 273.478C94.8062 273.478 94.1462 273.478 93.4662 273.478C93.4662 274.138 93.4662 274.798 93.4662 275.478C92.8062 275.478 92.1462 275.478 91.4662 275.478C91.1362 276.468 90.8062 277.458 90.4662 278.478C87.3129 281.365 83.8694 283.893 80.4662 286.478C79.85 286.959 79.2339 287.44 78.599 287.935C66.075 297.373 48.1857 303.188 32.4662 302.478C21.617 300.841 13.2699 297.491 6.23183 288.943C-0.0126543 280.225 -0.692769 270.88 0.466207 260.478C2.30325 250.409 7.16232 242.065 12.4662 233.478C13.1262 233.478 13.7862 233.478 14.4662 233.478C14.755 232.88 15.0437 232.282 15.3412 231.665C16.4662 229.478 16.4662 229.478 18.4662 226.478C19.1262 226.478 19.7862 226.478 20.4662 226.478C20.7962 225.488 21.1262 224.498 21.4662 223.478C22.1262 223.478 22.7862 223.478 23.4662 223.478C23.4662 222.818 23.4662 222.158 23.4662 221.478C25.7203 219.612 27.9717 217.875 30.3412 216.165C31.0287 215.668 31.7162 215.17 32.4245 214.657C50.2152 201.992 71.1363 197.692 92.7045 201.044C98.2609 202.165 102.696 203.342 107.466 206.478C107.136 207.798 106.806 209.118 106.466 210.478C105.298 210.318 104.13 210.158 102.927 209.994C96.6794 209.305 90.4256 209.256 84.1469 209.238C82.1019 209.228 80.0579 209.197 78.0131 209.165C62.4248 209.04 50.5728 213.504 37.7514 222.087C35.4662 223.478 35.4662 223.478 33.4662 223.478C33.1362 224.468 32.8062 225.458 32.4662 226.478C31.8062 226.478 31.1462 226.478 30.4662 226.478C30.4662 227.138 30.4662 227.798 30.4662 228.478C29.8062 228.478 29.1462 228.478 28.4662 228.478C28.4662 229.138 28.4662 229.798 28.4662 230.478C27.8062 230.478 27.1462 230.478 26.4662 230.478C26.0582 231.59 26.0582 231.59 25.642 232.724C24.5334 235.321 23.3108 237.271 21.6537 239.54C13.5015 251.469 11.6482 263.388 12.4662 277.478C13.1495 280.526 14.0547 282.655 15.4662 285.478C15.755 286.262 16.0437 287.045 16.3412 287.853C17.9746 290.212 19.7746 290.602 22.4662 291.478C23.1881 291.829 23.91 292.179 24.6537 292.54C38.0698 297.013 51.2586 292.34 63.4662 286.478C70.3004 282.784 76.0729 278.334 81.6889 272.982C83.4662 271.478 83.4662 271.478 85.4662 271.478C85.4662 270.818 85.4662 270.158 85.4662 269.478C86.8412 267.853 86.8412 267.853 88.4662 266.478C89.1262 266.478 89.7862 266.478 90.4662 266.478C90.4662 265.818 90.4662 265.158 90.4662 264.478C91.1262 264.478 91.7862 264.478 92.4662 264.478C93.1262 263.158 93.7862 261.838 94.4662 260.478C95.1262 260.478 95.7862 260.478 96.4662 260.478C97.1262 258.828 97.7862 257.178 98.4662 255.478C99.1262 255.478 99.7862 255.478 100.466 255.478C100.73 254.912 100.995 254.346 101.267 253.763C102.554 251.311 104.036 249.162 105.654 246.915C108.849 242.408 111.843 237.806 114.779 233.126C116.31 230.723 117.905 228.382 119.529 226.04C122.33 221.857 124.575 217.503 126.762 212.972C128.21 210.003 129.696 207.056 131.198 204.114C135.516 195.611 139.423 186.973 143.149 178.196C144.092 175.976 145.044 173.76 145.997 171.544C150.104 161.954 153.896 152.279 157.466 142.478C157.898 141.3 158.329 140.121 158.773 138.907C161.73 130.785 164.616 122.638 167.466 114.478C167.776 113.592 168.086 112.705 168.406 111.792C173.291 97.6447 176.467 83.1273 179.466 68.478C179.665 67.5769 179.864 66.6758 180.068 65.7475C181.67 57.997 181.833 50.3748 181.841 42.478C181.866 41.1889 181.89 39.8998 181.915 38.5717C181.941 30.3345 181.645 21.2735 175.948 14.7353C171.564 10.9629 168.318 9.99021 162.685 10.0873C149.248 11.718 138.039 18.6819 127.211 26.3364C125.359 27.5481 123.462 28.5246 121.466 29.478C121.466 30.138 121.466 30.798 121.466 31.478C119.829 32.932 118.129 34.3164 116.404 35.6655C112.241 38.9807 108.423 42.3633 104.806 46.2631C103.466 47.478 103.466 47.478 101.466 47.478C101.466 48.138 101.466 48.798 101.466 49.478C100.362 50.6162 99.2507 51.7473 98.1068 52.8451C96.0603 54.8819 94.1404 57.0129 92.2162 59.1655C91.5304 59.9324 90.8446 60.6994 90.1381 61.4897C88.42 63.3759 88.42 63.3759 87.4662 65.478C86.8062 65.478 86.1462 65.478 85.4662 65.478C85.2097 66.2024 84.9532 66.9269 84.6889 67.6733C83.4002 70.6294 81.87 72.8027 79.9037 75.353C74.8994 82.1065 70.6539 89.2014 66.4662 96.478C66.0558 97.189 65.6454 97.9001 65.2226 98.6327C45.4244 132.982 45.4244 132.982 40.4662 171.478C42.4501 178.338 46.1418 182.679 51.7943 186.908C53.7317 188.727 54.1813 189.859 54.4662 192.478C53.4662 193.478 53.4662 193.478 50.9037 193.978C45.0358 193.124 41.4572 189.046 37.9154 184.478C30.7939 173.722 30.8436 159.6 33.1537 147.212C34.04 143.231 35.2115 139.356 36.4662 135.478C36.6752 134.807 36.8842 134.137 37.0995 133.446C44.3392 110.463 56.0738 88.7671 70.4662 69.478C71.161 68.5305 71.8558 67.583 72.5717 66.6069C77.047 60.5602 81.6752 54.6662 86.4779 48.8764C87.6205 47.4981 88.7541 46.1119 89.8607 44.7045C92.7435 41.0601 96.0357 38.1348 99.5561 35.1342C101.104 33.7916 102.58 32.3646 104.029 30.9155C107.009 27.9352 110.062 24.9736 113.466 22.478C114.126 22.478 114.786 22.478 115.466 22.478C115.466 21.818 115.466 21.158 115.466 20.478C117.548 18.7514 117.548 18.7514 120.279 16.853C121.172 16.2213 122.065 15.5897 122.986 14.9389C125.466 13.478 125.466 13.478 128.466 13.478C128.466 12.818 128.466 12.158 128.466 11.478C143.76 3.65511 164.245 -5.73564 180.466 4.47796Z" fill="#FFFBFB"/>
<path d="M189.466 20.478C189.796 20.478 190.126 20.478 190.466 20.478C194.209 37.0672 191.601 55.9505 188.466 72.478C188.327 73.2238 188.188 73.9697 188.044 74.7382C181.557 108.519 169.176 142.046 155.564 173.552C153.681 177.913 152.008 182.321 150.404 186.79C145.996 198.765 140.602 210.559 133.791 221.365C132.447 223.508 131.232 225.691 130.029 227.915C124.626 237.691 118.264 246.631 111.466 255.478C110.787 256.388 110.108 257.298 109.408 258.236C108.788 259.058 108.168 259.881 107.529 260.728C106.984 261.455 106.438 262.182 105.876 262.931C105.411 263.442 104.946 263.952 104.466 264.478C103.806 264.478 103.146 264.478 102.466 264.478C102.239 265.035 102.013 265.592 101.779 266.165C100.091 269.14 97.9995 271.198 95.4663 273.478C94.8063 273.478 94.1463 273.478 93.4663 273.478C93.4663 274.138 93.4663 274.798 93.4663 275.478C92.8063 275.478 92.1463 275.478 91.4663 275.478C91.1363 276.468 90.8063 277.458 90.4663 278.478C87.313 281.365 83.8695 283.893 80.4663 286.478C79.5421 287.199 79.5421 287.199 78.5991 287.935C66.2135 297.269 48.0623 303.391 32.4663 302.478C30.1147 301.482 30.1147 301.482 28.4663 300.478C29.4357 300.464 30.4051 300.45 31.4038 300.435C54.2692 299.766 73.9929 290.106 90.4663 274.478C91.0074 273.972 91.5485 273.467 92.106 272.946C104.882 260.931 115.135 247.282 124.466 232.478C124.872 231.836 125.278 231.193 125.696 230.531C139.447 208.52 148.793 184.656 157.944 160.479C158.867 158.041 159.808 155.613 160.764 153.188C164.552 143.583 167.737 133.8 170.904 123.978C171.335 122.643 171.335 122.643 171.774 121.281C173.451 116.079 175.117 110.874 176.771 105.666C177.368 103.787 177.968 101.909 178.568 100.031C183.287 85.122 186.043 69.9129 188.466 54.478C188.583 53.7769 188.7 53.0758 188.821 52.3534C189.783 45.9315 189.575 39.4553 189.529 32.978C189.522 31.172 189.522 31.172 189.515 29.3295C189.503 26.3789 189.487 23.4285 189.466 20.478Z" fill="#7494C3"/>
<path d="M170.466 8.47795C172.408 10.0053 172.408 10.0053 173.466 11.4779C172.606 11.244 172.606 11.244 171.728 11.0053C159.899 8.24732 147.763 13.1337 137.732 19.2553C134.164 21.5291 130.665 23.8944 127.211 26.3363C125.359 27.5481 123.462 28.5246 121.466 29.4779C121.466 30.1379 121.466 30.7979 121.466 31.4779C119.829 32.932 118.129 34.3164 116.404 35.6654C112.241 38.9807 108.423 42.3633 104.806 46.2631C103.466 47.4779 103.466 47.4779 101.466 47.4779C101.466 48.1379 101.466 48.7979 101.466 49.4779C100.363 50.6162 99.2507 51.7473 98.1068 52.8451C96.0603 54.8819 94.1404 57.0129 92.2162 59.1654C91.5304 59.9324 90.8447 60.6994 90.1381 61.4897C88.42 63.3759 88.42 63.3759 87.4662 65.4779C86.8062 65.4779 86.1462 65.4779 85.4662 65.4779C85.2097 66.2024 84.9532 66.9269 84.6889 67.6733C83.4002 70.6293 81.87 72.8027 79.9037 75.353C74.8994 82.1065 70.6539 89.2014 66.4662 96.478C66.0558 97.189 65.6454 97.9001 65.2226 98.6327C53.5822 118.906 41.4577 141.037 39.9037 164.79C39.8199 166.045 39.7361 167.299 39.6498 168.591C39.5892 169.544 39.5286 170.496 39.4662 171.478C39.1362 171.478 38.8062 171.478 38.4662 171.478C37.8013 158.845 38.9944 148.33 43.4662 136.478C43.7073 135.837 43.9483 135.196 44.1967 134.536C49.0761 121.941 55.8624 110.227 62.4662 98.478C63.0953 97.3436 63.7243 96.2092 64.3725 95.0405C77.7477 71.4371 94.7383 50.0522 115.466 32.4779C116.246 31.8135 116.246 31.8135 117.042 31.1357C125.886 23.6751 135.171 17.7389 145.466 12.4779C146.36 12.001 147.253 11.524 148.173 11.0326C155.137 7.72981 162.899 7.4598 170.466 8.47795Z" fill="#7494C3"/>
<path d="M79.0289 206.228C79.9804 206.232 80.9319 206.236 81.9122 206.24C90.2093 206.34 98.2762 207.164 106.466 208.478C106.796 207.818 107.126 207.158 107.466 206.478C107.136 207.798 106.806 209.118 106.466 210.478C105.299 210.318 104.131 210.158 102.927 209.994C96.6796 209.305 90.4258 209.256 84.1471 209.238C82.1021 209.228 80.0581 209.197 78.0133 209.165C62.425 209.04 50.5729 213.504 37.7516 222.087C35.4664 223.478 35.4664 223.478 33.4664 223.478C33.1364 224.468 32.8064 225.458 32.4664 226.478C31.8064 226.478 31.1464 226.478 30.4664 226.478C30.4664 227.138 30.4664 227.798 30.4664 228.478C29.8064 228.478 29.1464 228.478 28.4664 228.478C28.4664 229.138 28.4664 229.798 28.4664 230.478C27.8064 230.478 27.1464 230.478 26.4664 230.478C26.0584 231.59 26.0584 231.59 25.6422 232.724C24.5336 235.321 23.3109 237.271 21.6539 239.54C16.1984 247.523 12.3058 256.579 12.3687 266.341C12.372 267.227 12.3752 268.114 12.3785 269.027C12.3869 269.939 12.3953 270.851 12.4039 271.79C12.4084 272.722 12.4129 273.653 12.4176 274.613C12.4293 276.901 12.4457 279.19 12.4664 281.478C7.94759 274.7 8.76595 266.381 9.89218 258.497C12.74 246.669 19.5192 236.499 27.4664 227.478C27.9614 226.866 28.4564 226.253 28.9664 225.622C36.3627 217.205 48.7394 211.218 59.4664 208.478C60.4535 208.214 60.4535 208.214 61.4605 207.945C67.3702 206.487 72.9569 206.168 79.0289 206.228Z" fill="#7494C3"/>
<path d="M88.4663 276.478C89.4563 276.808 90.4463 277.138 91.4663 277.478C74.5666 291.505 55.5924 303.832 32.4663 302.478C30.1147 301.482 30.1147 301.482 28.4663 300.478C29.4357 300.464 30.4051 300.45 31.4038 300.435C52.0037 299.833 71.1425 292.03 86.3647 278.033C87.0583 277.52 87.7518 277.007 88.4663 276.478Z" fill="#7494C3"/>
<path d="M165.466 141.478C166.126 141.478 166.786 141.478 167.466 141.478C165.316 149.296 162.474 156.73 159.404 164.228C158.516 166.41 157.629 168.592 156.744 170.775C156.354 171.727 155.965 172.679 155.564 173.661C154.43 176.571 153.43 179.507 152.466 182.478C152.136 182.478 151.806 182.478 151.466 182.478C151.989 175.862 153.768 170.373 156.216 164.228C156.575 163.309 156.933 162.389 157.302 161.442C159.925 154.747 162.622 148.082 165.466 141.478Z" fill="#7494C3"/>
<path d="M175.466 110.478C175.796 110.478 176.126 110.478 176.466 110.478C177.058 117.325 174.932 122.955 172.654 129.353C172.297 130.41 171.941 131.467 171.574 132.556C171.222 133.559 170.871 134.562 170.509 135.595C170.19 136.509 169.87 137.423 169.541 138.364C168.466 140.478 168.466 140.478 165.466 141.478C167.546 134.384 169.797 127.36 172.154 120.353C172.634 118.918 172.634 118.918 173.125 117.455C173.904 115.129 174.684 112.803 175.466 110.478Z" fill="#7494C3"/>
<path d="M129.466 224.478C130.126 224.478 130.786 224.478 131.466 224.478C127 233.673 121.473 242.226 115.466 250.478C115.136 249.488 114.806 248.498 114.466 247.478C115.926 244.966 117.42 242.655 119.091 240.29C120.022 238.942 120.952 237.593 121.88 236.244C122.554 235.272 122.554 235.272 123.241 234.281C124.735 232.083 126.11 229.825 127.466 227.54C128.456 226.025 128.456 226.025 129.466 224.478Z" fill="#7494C3"/>
<path d="M72.4663 207.478C69.7395 208.32 67.0103 209.152 64.2788 209.978C63.1254 210.336 63.1254 210.336 61.9487 210.701C58.0227 211.88 54.6158 212.811 50.4663 212.478C53.8724 209.447 57.0431 208.646 61.4663 207.728C62.6832 207.465 63.9001 207.202 65.1538 206.931C68.2025 206.514 69.6213 206.64 72.4663 207.478Z" fill="#7494C3"/>
<path d="M28.4663 217.478C29.1263 217.808 29.7863 218.138 30.4663 218.478C25.8463 223.098 21.2263 227.718 16.4663 232.478C15.8063 232.148 15.1463 231.818 14.4663 231.478C15.7469 229.77 17.084 228.104 18.4663 226.478C19.1263 226.478 19.7863 226.478 20.4663 226.478C20.7963 225.488 21.1263 224.498 21.4663 223.478C22.1263 223.478 22.7863 223.478 23.4663 223.478C23.4663 222.818 23.4663 222.158 23.4663 221.478C25.0926 220.096 26.7588 218.759 28.4663 217.478Z" fill="#7494C3"/>
<path d="M52.4663 213.478C51.4531 213.967 51.4531 213.967 50.4194 214.466C49.0814 215.122 49.0814 215.122 47.7163 215.79C46.8346 216.22 45.9529 216.649 45.0444 217.091C42.4497 218.402 42.4497 218.402 40.2632 220.146C38.4663 221.478 38.4663 221.478 36.4663 221.478C37.7665 217.577 39.2263 217.167 42.7788 215.228C44.2271 214.416 44.2271 214.416 45.7046 213.587C48.6033 212.423 49.6316 212.32 52.4663 213.478Z" fill="#7494C3"/>
<path d="M45.4663 131.478C45.7963 131.478 46.1263 131.478 46.4663 131.478C47.0982 137.481 44.8417 142.112 42.4663 147.478C41.8063 147.478 41.1463 147.478 40.4663 147.478C40.9208 145.748 41.3801 144.019 41.8413 142.29C42.0965 141.328 42.3518 140.365 42.6147 139.372C43.414 136.656 44.3694 134.087 45.4663 131.478Z" fill="#7494C3"/>
<path d="M147.466 14.4779C146.453 14.9671 146.453 14.9671 145.419 15.4662C144.081 16.1217 144.081 16.1217 142.716 16.7904C141.835 17.2197 140.953 17.649 140.044 18.0912C137.45 19.4016 137.45 19.4016 135.263 21.1459C133.466 22.4779 133.466 22.4779 131.466 22.4779C132.766 18.5774 134.226 18.1665 137.779 16.2279C139.227 15.4158 139.227 15.4158 140.705 14.5873C143.603 13.4229 144.632 13.3198 147.466 14.4779Z" fill="#7494C3"/>
<path d="M115.466 32.478C115.796 33.468 116.126 34.458 116.466 35.478C112.011 39.438 112.011 39.438 107.466 43.478C106.476 43.148 105.486 42.818 104.466 42.478C109.911 37.528 109.911 37.528 115.466 32.478Z" fill="#7494C3"/>
<path d="M36.4663 220.478C36.1363 221.468 35.8063 222.458 35.4663 223.478C34.8063 223.478 34.1463 223.478 33.4663 223.478C33.1363 224.468 32.8063 225.458 32.4663 226.478C31.8063 226.478 31.1463 226.478 30.4663 226.478C30.4663 227.138 30.4663 227.798 30.4663 228.478C29.8063 228.478 29.1463 228.478 28.4663 228.478C28.4663 229.138 28.4663 229.798 28.4663 230.478C27.1463 230.808 25.8263 231.138 24.4663 231.478C33.736 220.478 33.736 220.478 36.4663 220.478Z" fill="#7494C3"/>
<path d="M136.466 211.478C137.466 214.478 137.466 214.478 136.794 216.451C136.439 217.14 136.083 217.83 135.716 218.54C135.198 219.579 135.198 219.579 134.669 220.638C133.466 222.478 133.466 222.478 130.466 224.478C131.879 219.65 133.896 215.762 136.466 211.478Z" fill="#7494C3"/>
<path d="M80.4663 286.478C77.8263 288.128 75.1863 289.778 72.4663 291.478C71.8063 290.818 71.1463 290.158 70.4663 289.478C77.0913 285.353 77.0913 285.353 80.4663 286.478Z" fill="#7494C3"/>
<path d="M24.4663 231.478C25.1263 231.808 25.7863 232.138 26.4663 232.478C24.4863 235.448 22.5063 238.418 20.4663 241.478C19.4663 237.478 19.4663 237.478 20.4624 235.775C21.797 234.343 23.1317 232.91 24.4663 231.478Z" fill="#7494C3"/>
<path d="M168.466 131.478C168.796 131.478 169.126 131.478 169.466 131.478C169.136 134.448 168.806 137.418 168.466 140.478C167.476 140.808 166.486 141.138 165.466 141.478C166.456 138.178 167.446 134.878 168.466 131.478Z" fill="#7494C3"/>
</svg>
