<?xml version="1.0" encoding="UTF-8"?>
<svg version="1.1" xmlns="http://www.w3.org/2000/svg" width="216" height="355">
<path d="M0 0 C6.89198763 5.66674538 9.68727187 12.43907488 11 21 C11.29825611 25.08734414 11.33322932 29.15290999 11.3125 33.25 C11.30831055 34.38953125 11.30412109 35.5290625 11.29980469 36.703125 C11.16051129 47.32498726 9.97732342 57.57430659 8 68 C7.86078125 68.74588379 7.7215625 69.49176758 7.578125 70.26025391 C1.09082387 104.04077219 -11.29048277 137.567699 -24.90234375 169.07421875 C-26.78560517 173.43497049 -28.45835762 177.84301972 -30.0625 182.3125 C-34.47040287 194.28751091 -39.86382279 206.08089971 -46.67578125 216.88671875 C-48.01886328 219.03010334 -49.23383241 221.21324695 -50.4375 223.4375 C-55.83995901 233.2133782 -62.2026748 242.15268784 -69 251 C-69.67933594 251.91007813 -70.35867187 252.82015625 -71.05859375 253.7578125 C-71.67863281 254.58023437 -72.29867187 255.40265625 -72.9375 256.25 C-73.48277344 256.97703125 -74.02804688 257.7040625 -74.58984375 258.453125 C-75.05519531 258.96359375 -75.52054687 259.4740625 -76 260 C-76.66 260 -77.32 260 -78 260 C-78.226875 260.556875 -78.45375 261.11375 -78.6875 261.6875 C-80.37550036 264.66159588 -82.46676517 266.72008865 -85 269 C-85.66 269 -86.32 269 -87 269 C-87 269.66 -87 270.32 -87 271 C-87.66 271 -88.32 271 -89 271 C-89.33 271.99 -89.66 272.98 -90 274 C-93.15326924 276.88747643 -96.5967752 279.41456504 -100 282 C-100.61617188 282.48082031 -101.23234375 282.96164062 -101.8671875 283.45703125 C-114.3911905 292.8949761 -132.28052622 298.70991172 -148 298 C-158.84919165 296.36263733 -167.19628357 293.01307684 -174.234375 284.46484375 C-180.47886149 275.74743009 -181.15897622 266.40232896 -180 256 C-178.1629616 245.93073327 -173.30388348 237.58662689 -168 229 C-167.34 229 -166.68 229 -166 229 C-165.71125 228.401875 -165.4225 227.80375 -165.125 227.1875 C-164 225 -164 225 -162 222 C-161.34 222 -160.68 222 -160 222 C-159.67 221.01 -159.34 220.02 -159 219 C-158.34 219 -157.68 219 -157 219 C-157 218.34 -157 217.68 -157 217 C-154.74588227 215.13359052 -152.49450615 213.39669361 -150.125 211.6875 C-149.43752686 211.18984131 -148.75005371 210.69218262 -148.04174805 210.17944336 C-130.25104007 197.51405938 -109.32994973 193.21434153 -87.76171875 196.56640625 C-82.2053476 197.68706822 -77.76974119 198.86409281 -73 202 C-73.33 203.32 -73.66 204.64 -74 206 C-75.16789062 205.84015625 -76.33578125 205.6803125 -77.5390625 205.515625 C-83.78682917 204.82658699 -90.04060719 204.77774766 -96.31933594 204.75976562 C-98.36434489 204.75005062 -100.40835 204.71892786 -102.453125 204.6875 C-118.04136144 204.56242407 -129.89345184 209.0257146 -142.71484375 217.609375 C-145 219 -145 219 -147 219 C-147.33 219.99 -147.66 220.98 -148 222 C-148.66 222 -149.32 222 -150 222 C-150 222.66 -150 223.32 -150 224 C-150.66 224 -151.32 224 -152 224 C-152 224.66 -152 225.32 -152 226 C-152.66 226 -153.32 226 -154 226 C-154.40798828 227.11181641 -154.40798828 227.11181641 -154.82421875 228.24609375 C-155.932801 230.84260698 -157.15544848 232.79334501 -158.8125 235.0625 C-166.96471326 246.99110617 -168.81801437 258.91040769 -168 273 C-167.31672683 276.04810824 -166.41147223 278.17705555 -165 281 C-164.71125 281.78375 -164.4225 282.5675 -164.125 283.375 C-162.49162335 285.73432183 -160.69158967 286.12366848 -158 287 C-157.278125 287.350625 -156.55625 287.70125 -155.8125 288.0625 C-142.39638566 292.53453811 -129.2075627 287.86218033 -117 282 C-110.16579948 278.30607136 -104.39327894 273.85580108 -98.77734375 268.50390625 C-97 267 -97 267 -95 267 C-95 266.34 -95 265.68 -95 265 C-93.625 263.375 -93.625 263.375 -92 262 C-91.34 262 -90.68 262 -90 262 C-90 261.34 -90 260.68 -90 260 C-89.34 260 -88.68 260 -88 260 C-87.34 258.68 -86.68 257.36 -86 256 C-85.34 256 -84.68 256 -84 256 C-83.34 254.35 -82.68 252.7 -82 251 C-81.34 251 -80.68 251 -80 251 C-79.73574219 250.43410156 -79.47148438 249.86820313 -79.19921875 249.28515625 C-77.9124837 246.83323441 -76.43016658 244.68446479 -74.8125 242.4375 C-71.61743872 237.92994467 -68.6236029 233.32785149 -65.6875 228.6484375 C-64.15609339 226.2449799 -62.56071614 223.90432745 -60.9375 221.5625 C-58.13653393 217.37952693 -55.89107737 213.02455322 -53.7043457 208.49438477 C-52.2560588 205.52499206 -50.76997263 202.57851854 -49.26864624 199.63574219 C-44.95050069 191.13264562 -41.043293 182.49523707 -37.31738281 173.71826172 C-36.37422906 171.4981853 -35.4220489 169.28214248 -34.46875 167.06640625 C-30.36246947 157.4764966 -26.5701924 147.8012456 -23 138 C-22.56864746 136.82163574 -22.13729492 135.64327148 -21.69287109 134.42919922 C-18.73631173 126.3069982 -15.84996889 118.16016734 -13 110 C-12.68998047 109.11376953 -12.37996094 108.22753906 -12.06054688 107.31445312 C-7.17525451 93.16673883 -3.99920612 78.64934193 -1 64 C-0.80132324 63.09894531 -0.60264648 62.19789062 -0.39794922 61.26953125 C1.20338546 53.51901416 1.36710319 45.89680793 1.375 38 C1.39949219 36.7109375 1.42398438 35.421875 1.44921875 34.09375 C1.47433213 25.8565627 1.17879188 16.79553319 -4.51855469 10.25732422 C-8.90259186 6.48492019 -12.14831784 5.51225548 -17.78125 5.609375 C-31.21803041 7.24005223 -42.42733468 14.20398566 -53.25512695 21.85839844 C-55.10722623 23.07015389 -57.00436992 24.04665087 -59 25 C-59 25.66 -59 26.32 -59 27 C-60.6376272 28.45402342 -62.33734196 29.83848678 -64.0625 31.1875 C-68.22539378 34.50279428 -72.04331955 37.88533966 -75.66015625 41.78515625 C-77 43 -77 43 -79 43 C-79 43.66 -79 44.32 -79 45 C-80.10371629 46.13820742 -81.21550781 47.26933795 -82.359375 48.3671875 C-84.40588626 50.40395346 -86.32583617 52.53492824 -88.25 54.6875 C-88.93578125 55.45449219 -89.6215625 56.22148438 -90.328125 57.01171875 C-92.04622145 58.89798664 -92.04622145 58.89798664 -93 61 C-93.66 61 -94.32 61 -95 61 C-95.25652344 61.72445312 -95.51304688 62.44890625 -95.77734375 63.1953125 C-97.06599885 66.15139672 -98.5961828 68.32474618 -100.5625 70.875 C-105.56679959 77.62855025 -109.81235656 84.7234767 -114 92 C-114.41040527 92.7110791 -114.82081055 93.4221582 -115.24365234 94.15478516 C-135.04178408 128.50384005 -135.04178408 128.50384005 -140 167 C-138.01613506 173.86009372 -134.32437917 178.20093438 -128.671875 182.4296875 C-126.73452456 184.24934842 -126.28487124 185.38137593 -126 188 C-127 189 -127 189 -129.5625 189.5 C-135.43041124 188.64648564 -139.00904327 184.56768223 -142.55078125 180 C-149.67233247 169.24414683 -149.62262464 155.12182909 -147.3125 142.734375 C-146.42621031 138.75317542 -145.25470788 134.87853762 -144 131 C-143.79101074 130.32936523 -143.58202148 129.65873047 -143.36669922 128.96777344 C-136.12702527 105.985198 -124.39237992 84.28909769 -110 65 C-109.30519531 64.05253906 -108.61039062 63.10507813 -107.89453125 62.12890625 C-103.41925357 56.08227461 -98.79099832 50.18824149 -93.98828125 44.3984375 C-92.84566803 43.02011821 -91.71212894 41.63391188 -90.60546875 40.2265625 C-87.72272775 36.58216084 -84.43054807 33.65680826 -80.91015625 30.65625 C-79.36171664 29.3136357 -77.8866857 27.8866857 -76.4375 26.4375 C-73.45724046 23.45724046 -70.40468537 20.4956258 -67 18 C-66.34 18 -65.68 18 -65 18 C-65 17.34 -65 16.68 -65 16 C-62.91796875 14.2734375 -62.91796875 14.2734375 -60.1875 12.375 C-59.29417969 11.74335937 -58.40085937 11.11171875 -57.48046875 10.4609375 C-55 9 -55 9 -52 9 C-52 8.34 -52 7.68 -52 7 C-36.7059026 -0.82284292 -16.22158535 -10.21359078 0 0 Z " fill="#2D2D2D" transform="translate(191,27)"/>
<path d="M0 0 C0.33 0 0.66 0 1 0 C4.74232962 16.58924475 2.13457602 35.47254258 -1 52 C-1.13921875 52.74588379 -1.2784375 53.49176758 -1.421875 54.26025391 C-7.90917613 88.04077219 -20.29048277 121.567699 -33.90234375 153.07421875 C-35.78560517 157.43497049 -37.45835762 161.84301972 -39.0625 166.3125 C-43.47040287 178.28751091 -48.86382279 190.08089971 -55.67578125 200.88671875 C-57.01886328 203.03010334 -58.23383241 205.21324695 -59.4375 207.4375 C-64.83995901 217.2133782 -71.2026748 226.15268784 -78 235 C-78.67933594 235.91007813 -79.35867187 236.82015625 -80.05859375 237.7578125 C-80.67863281 238.58023438 -81.29867187 239.40265625 -81.9375 240.25 C-82.48277344 240.97703125 -83.02804688 241.7040625 -83.58984375 242.453125 C-84.05519531 242.96359375 -84.52054687 243.4740625 -85 244 C-85.66 244 -86.32 244 -87 244 C-87.226875 244.556875 -87.45375 245.11375 -87.6875 245.6875 C-89.37550036 248.66159588 -91.46676517 250.72008865 -94 253 C-94.66 253 -95.32 253 -96 253 C-96 253.66 -96 254.32 -96 255 C-96.66 255 -97.32 255 -98 255 C-98.33 255.99 -98.66 256.98 -99 258 C-102.15326924 260.88747643 -105.5967752 263.41456504 -109 266 C-109.92425781 266.72123047 -109.92425781 266.72123047 -110.8671875 267.45703125 C-123.25281715 276.79069953 -141.40404242 282.91327679 -157 282 C-159.3515625 281.00390625 -159.3515625 281.00390625 -161 280 C-160.030625 279.98582031 -159.06125 279.97164063 -158.0625 279.95703125 C-135.19715202 279.28850438 -115.47337493 269.62766651 -99 254 C-98.45891602 253.49452637 -97.91783203 252.98905273 -97.36035156 252.46826172 C-84.5841684 240.45265485 -74.33093508 226.8042437 -65 212 C-64.59426758 211.35756348 -64.18853516 210.71512695 -63.77050781 210.05322266 C-50.01942324 188.04167292 -40.67311349 164.17790673 -31.52270508 140.00097656 C-30.59895372 137.56323233 -29.65876983 135.13514805 -28.7019043 132.70996094 C-24.91393068 123.10553134 -21.72959695 113.32229276 -18.5625 103.5 C-18.13155029 102.16491394 -18.13155029 102.16491394 -17.69189453 100.80285645 C-16.01517738 95.60133946 -14.34961518 90.39637427 -12.69512939 85.18774414 C-12.09810466 83.30875964 -11.49829987 81.43065887 -10.89794922 79.55273438 C-6.17959263 64.64405596 -3.42318824 49.43496691 -1 34 C-0.88293701 33.29891113 -0.76587402 32.59782227 -0.64526367 31.87548828 C0.31692444 25.45357959 0.10876706 18.97738909 0.0625 12.5 C0.05573242 10.69402344 0.05573242 10.69402344 0.04882812 8.8515625 C0.0371195 5.90098927 0.02071995 2.95052141 0 0 Z " fill="#DBDBDB" transform="translate(200,43)"/>
<path d="M0 0 C1.94140625 1.52734375 1.94140625 1.52734375 3 3 C2.13955078 2.76603516 2.13955078 2.76603516 1.26171875 2.52734375 C-10.56690331 -0.23062513 -22.70334343 4.65576822 -32.734375 10.77734375 C-36.30185763 13.0511033 -39.80074504 15.41641725 -43.25512695 17.85839844 C-45.10722623 19.07015389 -47.00436992 20.04665087 -49 21 C-49 21.66 -49 22.32 -49 23 C-50.6376272 24.45402342 -52.33734196 25.83848678 -54.0625 27.1875 C-58.22539378 30.50279428 -62.04331955 33.88533966 -65.66015625 37.78515625 C-67 39 -67 39 -69 39 C-69 39.66 -69 40.32 -69 41 C-70.10371629 42.13820742 -71.21550781 43.26933795 -72.359375 44.3671875 C-74.40588626 46.40395346 -76.32583617 48.53492824 -78.25 50.6875 C-78.93578125 51.45449219 -79.6215625 52.22148438 -80.328125 53.01171875 C-82.04622145 54.89798664 -82.04622145 54.89798664 -83 57 C-83.66 57 -84.32 57 -85 57 C-85.25652344 57.72445312 -85.51304688 58.44890625 -85.77734375 59.1953125 C-87.06599885 62.15139672 -88.5961828 64.32474618 -90.5625 66.875 C-95.56679959 73.62855025 -99.81235656 80.7234767 -104 88 C-104.41040527 88.7110791 -104.82081055 89.4221582 -105.24365234 90.15478516 C-116.8840266 110.42795142 -129.00855039 132.55927029 -130.5625 156.3125 C-130.64628906 157.56675781 -130.73007813 158.82101563 -130.81640625 160.11328125 C-130.87699219 161.06589844 -130.93757813 162.01851562 -131 163 C-131.33 163 -131.66 163 -132 163 C-132.66490065 150.36688757 -131.47180268 139.85197957 -127 128 C-126.75894531 127.3591748 -126.51789063 126.71834961 -126.26953125 126.05810547 C-121.39014619 113.46270871 -114.6038312 101.74867644 -108 90 C-107.3709375 88.865625 -106.741875 87.73125 -106.09375 86.5625 C-92.71853751 62.95918383 -75.7279287 41.57430193 -55 24 C-54.22003662 23.33556885 -54.22003662 23.33556885 -53.42431641 22.65771484 C-44.58069566 15.19713304 -35.29533548 9.26097667 -25 4 C-24.10667969 3.52304687 -23.21335937 3.04609375 -22.29296875 2.5546875 C-15.32932971 -0.74813301 -7.56734689 -1.01815213 0 0 Z " fill="#E1E1E1" transform="translate(181,31)"/>
<path d="M0 0 C0.95148926 0.00386719 1.90297852 0.00773438 2.88330078 0.01171875 C11.18044034 0.11196947 19.24726872 0.93580816 27.4375 2.25 C27.7675 1.59 28.0975 0.93 28.4375 0.25 C28.1075 1.57 27.7775 2.89 27.4375 4.25 C26.26960938 4.09015625 25.10171875 3.9303125 23.8984375 3.765625 C17.65067083 3.07658699 11.39689281 3.02774766 5.11816406 3.00976562 C3.07315511 3.00005062 1.02915 2.96892786 -1.015625 2.9375 C-16.60386144 2.81242407 -28.45595184 7.2757146 -41.27734375 15.859375 C-43.5625 17.25 -43.5625 17.25 -45.5625 17.25 C-45.8925 18.24 -46.2225 19.23 -46.5625 20.25 C-47.2225 20.25 -47.8825 20.25 -48.5625 20.25 C-48.5625 20.91 -48.5625 21.57 -48.5625 22.25 C-49.2225 22.25 -49.8825 22.25 -50.5625 22.25 C-50.5625 22.91 -50.5625 23.57 -50.5625 24.25 C-51.2225 24.25 -51.8825 24.25 -52.5625 24.25 C-52.97048828 25.36181641 -52.97048828 25.36181641 -53.38671875 26.49609375 C-54.495301 29.09260698 -55.71794848 31.04334501 -57.375 33.3125 C-62.83051799 41.29520646 -66.72313571 50.35146444 -66.66015625 60.11328125 C-66.65693359 60.99951172 -66.65371094 61.88574219 -66.65039062 62.79882812 C-66.64201172 63.71083984 -66.63363281 64.62285156 -66.625 65.5625 C-66.62048828 66.49384766 -66.61597656 67.42519531 -66.61132812 68.38476562 C-66.59959234 70.67324373 -66.58317363 72.96158808 -66.5625 75.25 C-71.08130568 68.47179149 -70.26295172 60.15316206 -69.13671875 52.26953125 C-66.28891514 40.44153712 -59.50972962 30.27074653 -51.5625 21.25 C-51.0675 20.63769531 -50.5725 20.02539062 -50.0625 19.39453125 C-42.66615717 10.97733902 -30.28951298 4.98995287 -19.5625 2.25 C-18.57540039 1.986427 -18.57540039 1.986427 -17.56835938 1.7175293 C-11.65866032 0.25865824 -6.07199869 -0.0601933 0 0 Z " fill="#E5E5E5" transform="translate(89.5625,228.75)"/>
<path d="M0 0 C0.99 0.33 1.98 0.66 3 1 C-13.899723 15.02707569 -32.87395596 27.3542278 -56 26 C-58.3515625 25.00390625 -58.3515625 25.00390625 -60 24 C-59.030625 23.98582031 -58.06125 23.97164063 -57.0625 23.95703125 C-36.46263593 23.35474159 -17.32377656 15.55158402 -2.1015625 1.5546875 C-1.40804687 1.04164063 -0.71453125 0.52859375 0 0 Z " fill="#E6E6E6" transform="translate(99,299)"/>
<path d="M0 0 C0.66 0 1.32 0 2 0 C-0.14982752 7.81795369 -2.99263442 15.25184214 -6.0625 22.75 C-6.95079789 24.93164936 -7.83756787 27.11392159 -8.72265625 29.296875 C-9.11203369 30.24916992 -9.50141113 31.20146484 -9.90258789 32.18261719 C-11.03635113 35.09332414 -12.03614854 38.02915355 -13 41 C-13.33 41 -13.66 41 -14 41 C-13.47689305 34.38423566 -11.69823057 28.89458963 -9.25 22.75 C-8.89164063 21.83065674 -8.53328125 20.91131348 -8.1640625 19.96411133 C-5.54177688 13.26867567 -2.84418431 6.60452415 0 0 Z " fill="#E2E2E2" transform="translate(176,164)"/>
<path d="M0 0 C0.33 0 0.66 0 1 0 C1.59161789 6.84724971 -0.53478719 12.47666139 -2.8125 18.875 C-3.16892578 19.93203125 -3.52535156 20.9890625 -3.89257812 22.078125 C-4.24384766 23.08101562 -4.59511719 24.08390625 -4.95703125 25.1171875 C-5.27647705 26.03097168 -5.59592285 26.94475586 -5.92504883 27.88623047 C-7 30 -7 30 -10 31 C-7.92028538 23.90563736 -5.66940941 16.88176199 -3.3125 9.875 C-2.83200195 8.44027344 -2.83200195 8.44027344 -2.34179688 6.9765625 C-1.56258967 4.65057084 -0.78197326 2.32506289 0 0 Z " fill="#D8D8D8" transform="translate(186,133)"/>
<path d="M0 0 C0.66 0 1.32 0 2 0 C-2.46665314 9.19476891 -7.99333787 17.74768608 -14 26 C-14.33 25.01 -14.66 24.02 -15 23 C-13.53999208 20.48819046 -12.04653469 18.17655244 -10.375 15.8125 C-9.44429588 14.46424287 -8.51459865 13.11529011 -7.5859375 11.765625 C-6.91256348 10.79399414 -6.91256348 10.79399414 -6.22558594 9.80273438 C-4.73147011 7.605015 -3.35616604 5.3474343 -2 3.0625 C-1.01 1.5465625 -1.01 1.5465625 0 0 Z " fill="#E4E4E4" transform="translate(140,247)"/>
<path d="M0 0 C-2.72681111 0.84179395 -5.45601443 1.67363069 -8.1875 2.5 C-9.34088867 2.85771484 -9.34088867 2.85771484 -10.51757812 3.22265625 C-14.44356128 4.40213617 -17.85048821 5.3326262 -22 5 C-18.59389239 1.96856422 -15.42316528 1.16836906 -11 0.25 C-9.783125 -0.01296875 -8.56625 -0.2759375 -7.3125 -0.546875 C-4.2638403 -0.96390864 -2.84502348 -0.83832119 0 0 Z " fill="#D9D9D9" transform="translate(83,230)"/>
<path d="M0 0 C0.66 0.33 1.32 0.66 2 1 C-2.62 5.62 -7.24 10.24 -12 15 C-12.66 14.67 -13.32 14.34 -14 14 C-12.71937515 12.2925002 -11.38232443 10.62626404 -10 9 C-9.34 9 -8.68 9 -8 9 C-7.67 8.01 -7.34 7.02 -7 6 C-6.34 6 -5.68 6 -5 6 C-5 5.34 -5 4.68 -5 4 C-3.37373596 2.61767557 -1.7074998 1.28062485 0 0 Z " fill="#737373" transform="translate(39,240)"/>
<path d="M0 0 C-1.01320313 0.48919922 -1.01320313 0.48919922 -2.046875 0.98828125 C-3.38492188 1.64376953 -3.38492188 1.64376953 -4.75 2.3125 C-5.63171875 2.74175781 -6.5134375 3.17101562 -7.421875 3.61328125 C-10.01660815 4.92366072 -10.01660815 4.92366072 -12.203125 6.66796875 C-14 8 -14 8 -16 8 C-14.69983239 4.09949718 -13.23996087 3.68856143 -9.6875 1.75 C-8.23923828 0.93789062 -8.23923828 0.93789062 -6.76171875 0.109375 C-3.86300189 -1.05503177 -2.83470023 -1.15811981 0 0 Z " fill="#E9E9E9" transform="translate(63,236)"/>
<path d="M0 0 C0.33 0 0.66 0 1 0 C1.6319296 6.00333124 -0.62455877 10.63404795 -3 16 C-3.66 16 -4.32 16 -5 16 C-4.54548816 14.26982492 -4.08621143 12.54090123 -3.625 10.8125 C-3.36976562 9.84957031 -3.11453125 8.88664063 -2.8515625 7.89453125 C-2.05233704 5.17789793 -1.0968638 2.60862825 0 0 Z " fill="#CECECE" transform="translate(56,154)"/>
<path d="M0 0 C0.66 0 1.32 0 2 0 C0.68 5.28 -0.64 10.56 -2 16 C-2.33 16 -2.66 16 -3 16 C-3.37851209 10.06997733 -2.10575375 5.52760359 0 0 Z " fill="#E3E3E3" transform="translate(190,121)"/>
<path d="M0 0 C-1.01320312 0.48919922 -1.01320312 0.48919922 -2.046875 0.98828125 C-3.38492188 1.64376953 -3.38492188 1.64376953 -4.75 2.3125 C-5.63171875 2.74175781 -6.5134375 3.17101563 -7.421875 3.61328125 C-10.01660815 4.92366072 -10.01660815 4.92366072 -12.203125 6.66796875 C-14 8 -14 8 -16 8 C-14.69983239 4.09949718 -13.23996087 3.68856143 -9.6875 1.75 C-8.23923828 0.93789063 -8.23923828 0.93789063 -6.76171875 0.109375 C-3.86300189 -1.05503177 -2.83470023 -1.15811981 0 0 Z " fill="#E8E8E8" transform="translate(158,37)"/>
<path d="M0 0 C0.33 0.99 0.66 1.98 1 3 C-3.455 6.96 -3.455 6.96 -8 11 C-8.99 10.67 -9.98 10.34 -11 10 C-5.555 5.05 -5.555 5.05 0 0 Z " fill="#DCDCDC" transform="translate(126,55)"/>
<path d="M0 0 C-0.33 0.99 -0.66 1.98 -1 3 C-1.66 3 -2.32 3 -3 3 C-3.33 3.99 -3.66 4.98 -4 6 C-4.66 6 -5.32 6 -6 6 C-6 6.66 -6 7.32 -6 8 C-6.66 8 -7.32 8 -8 8 C-8 8.66 -8 9.32 -8 10 C-9.32 10.33 -10.64 10.66 -12 11 C-2.73033708 0 -2.73033708 0 0 0 Z " fill="#DEDEDE" transform="translate(47,243)"/>
<path d="M0 0 C1 3 1 3 0.328125 4.97265625 C-0.02765625 5.66230469 -0.3834375 6.35195312 -0.75 7.0625 C-1.26820313 8.10083984 -1.26820313 8.10083984 -1.796875 9.16015625 C-3 11 -3 11 -6 13 C-4.58707905 8.1725201 -2.57025846 4.2837641 0 0 Z " fill="#D9D9D9" transform="translate(147,234)"/>
<path d="M0 0 C-2.64 1.65 -5.28 3.3 -8 5 C-8.66 4.34 -9.32 3.68 -10 3 C-3.375 -1.125 -3.375 -1.125 0 0 Z " fill="#E8E8E8" transform="translate(91,309)"/>
<path d="M0 0 C0.66 0.33 1.32 0.66 2 1 C0.02 3.97 -1.96 6.94 -4 10 C-5 6 -5 6 -4.00390625 4.296875 C-2.66927083 2.86458333 -1.33463542 1.43229167 0 0 Z " fill="#E8E8E8" transform="translate(35,254)"/>
<path d="M0 0 C-3.51187196 2.40814077 -5.72656908 3.36629408 -10 3 C-4.375 -1.3125 -4.375 -1.3125 0 0 Z " fill="#D9D9D9" transform="translate(83,314)"/>
<path d="M0 0 C0.33 0 0.66 0 1 0 C0.67 2.97 0.34 5.94 0 9 C-0.99 9.33 -1.98 9.66 -3 10 C-2.01 6.7 -1.02 3.4 0 0 Z " fill="#C9C9C9" transform="translate(179,154)"/>
</svg>
