<?xml version="1.0" encoding="UTF-8"?>
<svg version="1.1" xmlns="http://www.w3.org/2000/svg" width="1092" height="355">
<path d="M0 0 C360.36 0 720.72 0 1092 0 C1092 117.15 1092 234.3 1092 355 C731.64 355 371.28 355 0 355 C0 237.85 0 120.7 0 0 Z " fill="#EFEFEF" transform="translate(0,0)"/>
<path d="M0 0 C7.82860214 7.0324731 9.65460483 16.38836644 10.26953125 26.51953125 C11.12132613 60.02860233 0.36692992 92.91654231 -10.20410156 124.31787109 C-10.77668081 126.02208046 -11.34265059 127.72851295 -11.90527344 129.43603516 C-28.86341998 180.81117513 -49.9009355 231.01890477 -88.96875 269.59375 C-89.76152344 270.38394531 -90.55429688 271.17414063 -91.37109375 271.98828125 C-106.8784233 286.77878508 -127.27367621 296.32705701 -148.8359375 295.8359375 C-159.14207141 295.36514622 -166.53388112 291.47587741 -173.53515625 283.8984375 C-180.56796628 274.87124851 -180.77136706 264.57038613 -179.96875 253.59375 C-179.413111 250.29495627 -178.42858091 247.59623911 -176.96875 244.59375 C-176.48148437 243.57796875 -175.99421875 242.5621875 -175.4921875 241.515625 C-171.7457728 234.15965094 -167.45149959 227.75653055 -161.96875 221.59375 C-161.36546875 220.90796875 -160.7621875 220.2221875 -160.140625 219.515625 C-152.37416418 211.22704917 -143.03916952 205.22376585 -132.71875 200.65625 C-132.08195312 200.37386475 -131.44515625 200.09147949 -130.7890625 199.80053711 C-121.72783551 195.9982244 -113.05967626 195.20453717 -103.28125 195.21875 C-101.56228516 195.22116699 -101.56228516 195.22116699 -99.80859375 195.22363281 C-91.64514807 195.34164181 -83.31946466 195.62436408 -75.96875 199.59375 C-74.82226562 201.67285156 -74.82226562 201.67285156 -73.96875 203.59375 C-74.6083667 203.52446289 -75.2479834 203.45517578 -75.90698242 203.38378906 C-101.49886461 200.8110965 -124.5640576 201.22384911 -145.953125 216.76171875 C-159.77843353 228.54757959 -168.65947335 243.77919506 -170.25390625 261.8203125 C-170.64004423 270.27574424 -169.13825022 276.73696953 -163.546875 283.25 C-157.29127565 289.03474779 -149.06824526 289.09201327 -141.015625 288.97265625 C-117.79466854 287.41078382 -98.13845689 269.49654167 -83.48828125 252.91845703 C-72.2191935 239.71989312 -63.0489908 224.705104 -54.71875 209.53125 C-54.27217041 208.71914062 -53.82559082 207.90703125 -53.36547852 207.0703125 C-45.13463742 191.75490407 -38.265921 175.88416383 -31.90625 159.71875 C-31.20263557 157.94017078 -30.49877557 156.16168869 -29.79467773 154.38330078 C-28.43669109 150.94923946 -27.08319786 147.51345896 -25.73339844 144.07617188 C-24.33116234 140.50748565 -22.90930802 136.94719054 -21.4765625 133.390625 C-15.65383892 118.77029797 -11.33021281 103.70060752 -6.96875 88.59375 C-6.61393555 87.3862207 -6.25912109 86.17869141 -5.89355469 84.93457031 C-1.02751351 68.23612762 1.4107661 52.08984009 1.53125 34.71875 C1.54677917 33.6875705 1.54677917 33.6875705 1.56262207 32.63555908 C1.68002376 22.779422 1.03679826 15.17151944 -5.59375 7.59375 C-10.61332225 3.36674179 -16.54281715 3.8252125 -22.83251953 4.28564453 C-39.66875261 6.71391038 -55.2914997 20.36959099 -67.48095703 31.26904297 C-69.38986973 32.96870826 -71.33716503 34.62204085 -73.28125 36.28125 C-91.61113933 52.46615228 -104.673828 72.67845705 -116.96875 93.59375 C-117.40074707 94.32851562 -117.83274414 95.06328125 -118.27783203 95.8203125 C-129.4279625 114.95172241 -141.21144985 136.01660525 -141.53125 158.65625 C-141.54615479 159.42976807 -141.56105957 160.20328613 -141.57641602 161.00024414 C-141.44685152 168.07722559 -139.22724901 173.18468439 -134.390625 178.34375 C-133.50890625 179.08625 -132.6271875 179.82875 -131.71875 180.59375 C-130.82671875 181.356875 -129.9346875 182.12 -129.015625 182.90625 C-128.34015625 183.463125 -127.6646875 184.02 -126.96875 184.59375 C-127.29875 185.58375 -127.62875 186.57375 -127.96875 187.59375 C-131.53317676 188.11793041 -132.85344435 187.66980266 -135.90625 185.65625 C-143.56584721 178.62837215 -147.51377216 169.93816324 -148.25 159.671875 C-148.76595541 144.03555963 -144.57592299 130.02269694 -138.96875 115.59375 C-138.59024902 114.61583496 -138.59024902 114.61583496 -138.20410156 113.61816406 C-130.97954053 95.31036397 -120.48256668 78.48549466 -108.96875 62.59375 C-108.22109375 61.55089844 -107.4734375 60.50804688 -106.703125 59.43359375 C-93.91508302 41.97653644 -79.46219214 26.37453932 -61.96875 13.59375 C-61.05754395 12.92400146 -61.05754395 12.92400146 -60.12792969 12.24072266 C-44.60347341 0.97138986 -18.29338575 -13.06670411 0 0 Z " fill="#1A1A1A" transform="translate(260.96875,27.40625)"/>
<path d="M0 0 C4.10757963 -0.07489276 8.2148876 -0.12894754 12.32299805 -0.16479492 C13.71662328 -0.17975938 15.11020244 -0.20013851 16.50366211 -0.22631836 C34.68976467 -0.55911033 34.68976467 -0.55911033 42.375 5.375 C47.40112471 10.40112471 49.13298802 14.87566161 49.1875 21.875 C49.15743789 25.93939754 48.59357043 29.21527022 47 33 C46.34 33 45.68 33 45 33 C44.7215625 33.86625 44.7215625 33.86625 44.4375 34.75 C42.2544279 38.16698242 39.63212185 39.2157998 36 41 C35.01 41 34.02 41 33 41 C37.80046264 49.67934649 42.87738804 58.07568302 48.40551758 66.31225586 C48.85822021 66.99553955 49.31092285 67.67882324 49.77734375 68.3828125 C50.18202881 68.98496582 50.58671387 69.58711914 51.00366211 70.20751953 C52 72 52 72 53 76 C49.04 76 45.08 76 41 76 C39.69614539 73.71343724 38.39246439 71.42677533 37.08959961 69.13964844 C35.98498869 67.20759955 34.87508678 65.27856643 33.76000977 63.35253906 C29.00246284 55.11867177 29.00246284 55.11867177 27.03125 50.96875 C26.5053125 49.9065625 25.979375 48.844375 25.4375 47.75 C25.02371094 46.83734375 24.60992188 45.9246875 24.18359375 44.984375 C21.12736964 41.80644557 21.12736964 41.80644557 11 42 C11 53.22 11 64.44 11 76 C7.7 76 4.4 76 1 76 C-0.66165207 74.33834793 -0.11959725 72.3348397 -0.12442017 70.11598206 C-0.12082489 69.41827194 -0.11722961 68.72056183 -0.11352539 68.00170898 C-0.11367142 67.27004517 -0.11381744 66.53838135 -0.1139679 65.7845459 C-0.11326867 63.35503216 -0.10547585 60.92559417 -0.09765625 58.49609375 C-0.0957921 56.81600486 -0.09436819 55.13591543 -0.09336853 53.45582581 C-0.08954307 49.02526357 -0.07971256 44.5947339 -0.06866455 40.16418457 C-0.05845103 35.64657024 -0.05387104 31.12895066 -0.04882812 26.61132812 C-0.03809031 17.74087107 -0.02101356 8.87043824 0 0 Z " fill="#191919" transform="translate(636,136)"/>
<path d="M0 0 C12 0 12 0 14.84521484 2.7265625 C15.55217435 4.00295786 16.21324264 5.30544403 16.8359375 6.625 C17.6442557 8.10439265 18.4580554 9.58079919 19.27636719 11.0546875 C19.70590698 11.85358398 20.13544678 12.65248047 20.57800293 13.47558594 C23.16345473 18.06543426 26.15345063 22.38786801 29.1015625 26.75 C30.22533235 28.4319175 31.34852295 30.11422213 32.47119141 31.796875 C33.84194824 33.84390625 35.21270508 35.8909375 36.625 38 C41.03875 44.6 45.4525 51.2 50 58 C50.33 38.86 50.66 19.72 51 0 C54.3 0 57.6 0 61 0 C62.66165207 1.66165207 62.11959725 3.6651603 62.12442017 5.88401794 C62.11902725 6.93058311 62.11902725 6.93058311 62.11352539 7.99829102 C62.11367142 8.72995483 62.11381744 9.46161865 62.1139679 10.2154541 C62.11326867 12.64496784 62.10547585 15.07440583 62.09765625 17.50390625 C62.0957921 19.18399514 62.09436819 20.86408457 62.09336853 22.54417419 C62.08954307 26.97473643 62.07971256 31.4052661 62.06866455 35.83581543 C62.05845103 40.35342976 62.05387104 44.87104934 62.04882812 49.38867188 C62.03809031 58.25912893 62.02101356 67.12956176 62 76 C51.6253846 77.16316684 51.6253846 77.16316684 48.10632324 74.64483643 C46.54820616 72.60666496 45.32418267 70.54892037 44.109375 68.2890625 C43.11299025 66.62693217 42.1148746 64.96583851 41.11523438 63.30566406 C40.60919678 62.43349243 40.10315918 61.5613208 39.58178711 60.66271973 C36.94651462 56.22660313 34.03248105 51.98231045 31.140625 47.7109375 C30.1031219 46.15765268 29.06702487 44.60342791 28.03222656 43.04833984 C26.7840918 41.1761377 25.53595703 39.30393555 24.25 37.375 C20.2075 31.31125 16.165 25.2475 12 19 C11.67 37.81 11.34 56.62 11 76 C7.37 76 3.74 76 0 76 C0 50.92 0 25.84 0 0 Z " fill="#191919" transform="translate(372,136)"/>
<path d="M0 0 C4.77860999 3.88317472 7.29245031 7.8815812 9.66796875 13.5234375 C6.76704373 15.45738751 5.77122138 15.82475691 2.48046875 16.1484375 C1.22234375 16.2721875 -0.03578125 16.3959375 -1.33203125 16.5234375 C-1.6465625 15.96914062 -1.96109375 15.41484375 -2.28515625 14.84375 C-2.713125 14.11929688 -3.14109375 13.39484375 -3.58203125 12.6484375 C-3.9996875 11.92914063 -4.41734375 11.20984375 -4.84765625 10.46875 C-6.60079257 8.17121872 -7.59215979 7.43984502 -10.33203125 6.5234375 C-13.86278827 6.1302565 -13.86278827 6.1302565 -17.70703125 6.1484375 C-19.63675781 6.10589844 -19.63675781 6.10589844 -21.60546875 6.0625 C-25.9383295 6.59843037 -28.05714002 7.66409138 -31.33203125 10.5234375 C-32.32497816 12.69950222 -32.32497816 12.69950222 -32.33203125 15.0234375 C-32.39390625 15.77625 -32.45578125 16.5290625 -32.51953125 17.3046875 C-32.29839047 19.92152004 -31.84193436 21.36839397 -30.33203125 23.5234375 C-28.25913512 24.7070477 -28.25913512 24.7070477 -25.70703125 25.4609375 C-24.72605469 25.79351562 -23.74507813 26.12609375 -22.734375 26.46875 C-20.29381059 27.22529695 -17.85666015 27.94747899 -15.3984375 28.640625 C2.95002295 33.89581953 2.95002295 33.89581953 8.38671875 42.125 C11.03079637 47.07458433 11.40933005 52.00707242 10.2421875 57.54296875 C8.29747959 63.78273707 4.51299132 67.42912733 -1.16796875 70.5234375 C-10.47016373 74.74801513 -21.41834564 74.89365383 -31.015625 71.55078125 C-38.44822657 68.25436605 -42.13573515 64.04171194 -45.51953125 56.6953125 C-46.33203125 54.5234375 -46.33203125 54.5234375 -46.33203125 52.5234375 C-42.70203125 51.8634375 -39.07203125 51.2034375 -35.33203125 50.5234375 C-34.42057292 52.54166667 -33.50911458 54.55989583 -32.59765625 56.578125 C-31.11273439 58.8605049 -29.82787717 59.52719648 -27.33203125 60.5234375 C-27.33203125 61.1834375 -27.33203125 61.8434375 -27.33203125 62.5234375 C-16.29627296 64.47058822 -16.29627296 64.47058822 -5.76953125 61.5234375 C-2.94471013 59.50489124 -1.76390085 58.01882648 -1.14453125 54.5859375 C-1.04615509 50.57521705 -2.01513513 47.84432195 -4.33203125 44.5234375 C-8.87443877 41.09199356 -14.10644081 40.15018549 -19.51953125 38.7734375 C-28.32203 36.39668741 -36.55340562 33.90776086 -42.0234375 26.11328125 C-44.64931417 20.91639697 -44.98449671 14.98603039 -43.39453125 9.3984375 C-43.04390625 8.4496875 -42.69328125 7.5009375 -42.33203125 6.5234375 C-41.67203125 6.5234375 -41.01203125 6.5234375 -40.33203125 6.5234375 C-40.10515625 5.9459375 -39.87828125 5.3684375 -39.64453125 4.7734375 C-36.50800828 -0.60345903 -31.75815377 -2.38827951 -26.00390625 -3.9375 C-17.26762935 -5.70008218 -7.6468858 -4.84174679 0 0 Z " fill="#171717" transform="translate(514.33203125,139.4765625)"/>
<path d="M0 0 C3.78754583 3.56757946 7.05548207 6.75267814 8 12 C5.04085545 13.72043288 2.83456919 14.98012931 -0.625 15.0625 C-3 14 -3 14 -4.8125 11.1875 C-8.62517917 5.63188177 -13.90238495 4.07185454 -20.3125 2.625 C-27.48809404 1.50879648 -33.92187711 2.40393628 -40.375 5.75 C-47.3939612 11.76625246 -50.49036481 17.33186232 -51.3203125 26.5625 C-51.56360608 34.60740779 -50.72769808 40.8575128 -47 48 C-46.6596875 48.72703125 -46.319375 49.4540625 -45.96875 50.203125 C-44.65443274 52.64097153 -43.57790868 52.98240447 -41 54 C-39.80375 54.515625 -38.6075 55.03125 -37.375 55.5625 C-29.706727 58.35096291 -21.69897744 58.95597738 -14 56 C-8.82260992 53.26725993 -4.43779561 50.52567006 -2 45 C4.625 45.75 4.625 45.75 8 48 C8 48.99 8 49.98 8 51 C7.34 51 6.68 51 6 51 C5.7215625 52.0209375 5.7215625 52.0209375 5.4375 53.0625 C1.66547692 60.77054717 -4.35697875 64.00494491 -12.1328125 67.0546875 C-22.26100825 70.3939564 -31.98554541 69.39620634 -42 66 C-45.375 64.125 -45.375 64.125 -48 62 C-49.485 60.948125 -49.485 60.948125 -51 59.875 C-58.62112652 53.33403315 -62.52706693 43.13499282 -63.28125 33.3515625 C-63.45691983 26.01734706 -63.15651456 19.6694098 -60 13 C-59.6596875 12.24203125 -59.319375 11.4840625 -58.96875 10.703125 C-54.7659627 2.24075597 -47.87827934 -3.75224708 -39 -7 C-24.50861891 -11.17103897 -12.14714045 -8.94525829 0 0 Z " fill="#171717" transform="translate(922,144)"/>
<path d="M0 0 C13.53 0 27.06 0 41 0 C41 3.3 41 6.6 41 10 C31.1 10 21.2 10 11 10 C11 17.59 11 25.18 11 33 C12.86527344 32.98839844 14.73054687 32.97679687 16.65234375 32.96484375 C19.08072817 32.95546775 21.50911367 32.94636735 23.9375 32.9375 C25.78504883 32.92493164 25.78504883 32.92493164 27.66992188 32.91210938 C28.83974609 32.90888672 30.00957031 32.90566406 31.21484375 32.90234375 C32.84087524 32.89448853 32.84087524 32.89448853 34.49975586 32.88647461 C37 33 37 33 38 34 C38 36.97 38 39.94 38 43 C29.09 43 20.18 43 11 43 C11 50.59 11 58.18 11 66 C20.9 66 30.8 66 41 66 C41 69.3 41 72.6 41 76 C27.47 76 13.94 76 0 76 C0 50.92 0 25.84 0 0 Z " fill="#181818" transform="translate(964,136)"/>
<path d="M0 0 C13.53 0 27.06 0 41 0 C41 3.3 41 6.6 41 10 C31.1 10 21.2 10 11 10 C11 17.59 11 25.18 11 33 C19.58 33 28.16 33 37 33 C37 36.3 37 39.6 37 43 C28.42 43 19.84 43 11 43 C11 50.59 11 58.18 11 66 C20.9 66 30.8 66 41 66 C41 69.3 41 72.6 41 76 C27.47 76 13.94 76 0 76 C0 50.92 0 25.84 0 0 Z " fill="#181818" transform="translate(560,136)"/>
<path d="M0 0 C3.96 0 7.92 0 12 0 C18.93 19.8 25.86 39.6 33 60 C35.52295528 54.32335063 37.8736558 48.84100175 39.875 43 C40.39312816 41.51038153 40.91136029 40.02079922 41.4296875 38.53125 C41.68975586 37.77972656 41.94982422 37.02820313 42.21777344 36.25390625 C43.46365761 32.66401777 44.73256813 29.08232467 46 25.5 C46.49230703 24.10551094 46.98449385 22.71097944 47.4765625 21.31640625 C51.23828125 10.65820312 51.23828125 10.65820312 55 0 C58.63 0 62.26 0 66 0 C66 4.7039033 65.664746 6.30575801 63.8125 10.375 C61.74918597 15.10951662 59.97164322 19.84506307 58.375 24.75 C56.91408228 29.2290282 55.42587655 33.68022097 53.734375 38.078125 C52.85656587 40.37537018 52.02243261 42.68682606 51.1875 45 C43.23253949 66.88376111 43.23253949 66.88376111 39 76 C35.37 76 31.74 76 28 76 C22.59117372 62.33489372 17.49335649 48.56370038 12.46411133 34.75488281 C11.17417258 31.21341012 9.88124725 27.67303823 8.58789062 24.1328125 C7.76024478 21.86464605 6.93276465 19.59641912 6.10546875 17.328125 C5.7221489 16.27812317 5.33882904 15.22812134 4.94389343 14.14630127 C3.23427908 9.44968179 1.54228907 4.75501144 0 0 Z " fill="#181818" transform="translate(714,136)"/>
<path d="M0 0 C3.3 0 6.6 0 10 0 C11.66165207 1.66165207 11.11959725 3.6651603 11.12442017 5.88401794 C11.12082489 6.58172806 11.11722961 7.27943817 11.11352539 7.99829102 C11.11367142 8.72995483 11.11381744 9.46161865 11.1139679 10.2154541 C11.11326867 12.64496784 11.10547585 15.07440583 11.09765625 17.50390625 C11.0957921 19.18399514 11.09436819 20.86408457 11.09336853 22.54417419 C11.08954307 26.97473643 11.07971256 31.4052661 11.06866455 35.83581543 C11.05845103 40.35342976 11.05387104 44.87104934 11.04882812 49.38867188 C11.03809031 58.25912893 11.02101356 67.12956176 11 76 C7.37 76 3.74 76 0 76 C0 50.92 0 25.84 0 0 Z " fill="#1C1C1C" transform="translate(813,136)"/>
<path d="M0 0 C3.3 0 6.6 0 10 0 C11.66165207 1.66165207 11.11959725 3.6651603 11.12442017 5.88401794 C11.12082489 6.58172806 11.11722961 7.27943817 11.11352539 7.99829102 C11.11367142 8.72995483 11.11381744 9.46161865 11.1139679 10.2154541 C11.11326867 12.64496784 11.10547585 15.07440583 11.09765625 17.50390625 C11.0957921 19.18399514 11.09436819 20.86408457 11.09336853 22.54417419 C11.08954307 26.97473643 11.07971256 31.4052661 11.06866455 35.83581543 C11.05845103 40.35342976 11.05387104 44.87104934 11.04882812 49.38867188 C11.03809031 58.25912893 11.02101356 67.12956176 11 76 C7.37 76 3.74 76 0 76 C0 50.92 0 25.84 0 0 Z " fill="#1C1C1C" transform="translate(321,136)"/>
<path d="M0 0 C2.825625 -0.0825 5.65125 -0.165 8.5625 -0.25 C9.43849854 -0.28641602 10.31449707 -0.32283203 11.21704102 -0.36035156 C16.992622 -0.44122926 20.29033719 0.61606489 25 4 C27.63853602 8.07773748 28.29697036 10.9830536 27.5 15.6875 C26.62934032 18.8038246 25.97620433 20.02643963 23.75 22.5 C18.52676209 25.34903886 12.94822274 25.13527418 7.125 25.0625 C4.77375 25.041875 2.4225 25.02125 0 25 C0 16.75 0 8.5 0 0 Z " fill="#E8E8E8" transform="translate(647,145)"/>
</svg>
